<svg width="142" height="24" viewBox="0 0 142 24" fill="none" xmlns="http://www.w3.org/2000/svg">
<path d="M56.9162 20.5369C56.9748 20.5954 57.0691 20.5954 57.2576 20.5954H60.1782C60.3668 20.5954 60.4611 20.5954 60.5197 20.5369C60.5782 20.4783 60.5782 20.384 60.5782 20.1954V8.42583C60.5782 8.23727 60.5782 8.14299 60.5197 8.08441C60.4611 8.02583 60.3668 8.02583 60.1782 8.02583H57.2576C57.0691 8.02583 56.9748 8.02583 56.9162 8.08441C56.8576 8.14299 56.8576 8.23727 56.8576 8.42583V20.1954C56.8576 20.384 56.8576 20.4783 56.9162 20.5369Z" fill="#1F40BA"/>
<path d="M56.9392 6.30791C56.9977 6.36599 57.0914 6.36599 57.2787 6.36599H60.1782C60.3668 6.36599 60.4611 6.36599 60.5197 6.30741C60.5782 6.24883 60.5782 6.15455 60.5782 5.96599V3.39805C60.5782 3.20949 60.5782 3.1152 60.5197 3.05663C60.4611 2.99805 60.3668 2.99805 60.1782 2.99805H57.2605C57.0707 2.99805 56.9758 2.99805 56.9171 3.05713C56.8585 3.11621 56.8591 3.2111 56.8605 3.40089L56.8787 5.96883C56.8801 6.15617 56.8807 6.24983 56.9392 6.30791Z" fill="#1F40BA"/>
<path d="M62.8199 20.5955C62.6314 20.5955 62.5371 20.5955 62.4785 20.5369C62.4199 20.4784 62.4199 20.3841 62.4199 20.1955V3.39805C62.4199 3.20948 62.4199 3.1152 62.4785 3.05663C62.5371 2.99805 62.6314 2.99805 62.8199 2.99805H65.7406C65.9291 2.99805 66.0234 2.99805 66.082 3.05663C66.1405 3.1152 66.1405 3.20949 66.1405 3.39805V20.1955C66.1405 20.3841 66.1405 20.4784 66.082 20.5369C66.0234 20.5955 65.9291 20.5955 65.7406 20.5955H62.8199Z" fill="#1F40BA"/>
<path fill-rule="evenodd" clip-rule="evenodd" d="M77.6541 9.86106C76.7743 8.45326 75.3413 7.62367 73.1794 7.62367C69.0565 7.62367 67.3722 10.7158 67.3722 14.2856C67.3722 17.9308 69.0565 20.9977 73.1794 20.9977C75.3413 20.9977 76.7743 20.1681 77.6541 18.7855V20.1955C77.6541 20.3841 77.6541 20.4784 77.7127 20.5369C77.7713 20.5955 77.8656 20.5955 78.0541 20.5955H80.9747C81.1633 20.5955 81.2576 20.5955 81.3162 20.5369C81.3747 20.4784 81.3747 20.3841 81.3747 20.1955V3.39805C81.3747 3.20949 81.3747 3.1152 81.3162 3.05663C81.2576 2.99805 81.1633 2.99805 80.9747 2.99805H78.0541C77.8656 2.99805 77.7713 2.99805 77.7127 3.05663C77.6541 3.1152 77.6541 3.20949 77.6541 3.39805V9.86106ZM74.3106 18.0816C71.9475 18.0816 71.1179 16.9 71.1179 14.3107C71.1179 11.6962 71.9475 10.5398 74.3106 10.5398C76.6737 10.5398 77.6541 11.7465 77.6541 14.3107C77.6541 16.8749 76.6737 18.0816 74.3106 18.0816Z" fill="#1F40BA"/>
<path d="M84.9136 20.5955C84.725 20.5955 84.6308 20.5955 84.5722 20.5369C84.5136 20.4784 84.5136 20.3841 84.5136 20.1955V10.8415H82.6762C82.4876 10.8415 82.3934 10.8415 82.3348 10.7829C82.2762 10.7243 82.2762 10.6301 82.2762 10.4415V9.30758C82.2762 9.18556 82.2762 9.12454 82.3068 9.0758C82.3374 9.02705 82.3923 9.0005 82.5022 8.94742L84.5136 7.97562V6.81921C84.5136 4.45612 85.6951 2.99805 88.8124 2.99805H91.6302C91.8188 2.99805 91.9131 2.99805 91.9716 3.05663C92.0302 3.1152 92.0302 3.20949 92.0302 3.39805V5.28794C92.0302 5.47651 92.0302 5.57079 91.9716 5.62937C91.9131 5.68794 91.8188 5.68794 91.6302 5.68794H87.7063V8.0259H90.9515C91.14 8.0259 91.2343 8.0259 91.2929 8.08447C91.3515 8.14305 91.3515 8.23733 91.3515 8.4259V10.4415C91.3515 10.6301 91.3515 10.7243 91.2929 10.7829C91.2343 10.8415 91.14 10.8415 90.9515 10.8415H88.2342V20.1955C88.2342 20.3841 88.2342 20.4784 88.1756 20.5369C88.1171 20.5955 88.0228 20.5955 87.8342 20.5955H84.9136Z" fill="#1F40BA"/>
<path fill-rule="evenodd" clip-rule="evenodd" d="M91.3034 14.2857C91.3034 17.8052 93.2643 20.9979 98.267 20.9979C103.295 20.9979 105.231 17.7801 105.231 14.2857C105.231 10.8416 103.295 7.62381 98.267 7.62381C93.2643 7.62381 91.3034 10.8165 91.3034 14.2857ZM98.267 18.0817C96.0045 18.0817 95.0492 17.1013 95.0492 14.3108C95.0492 11.5204 96.0045 10.54 98.267 10.54C100.555 10.54 101.51 11.5204 101.51 14.3108C101.51 17.1013 100.555 18.0817 98.267 18.0817Z" fill="#1F40BA"/>
<path d="M121.682 7.62381C116.805 7.62381 114.794 10.7914 114.794 14.3108C114.794 17.8303 116.856 20.9979 121.758 20.9979C125.976 20.9979 128.069 18.599 128.321 15.8268C128.338 15.6404 128.346 15.5472 128.287 15.4821C128.227 15.417 128.129 15.417 127.934 15.417H125.086C124.918 15.417 124.834 15.417 124.779 15.4631C124.723 15.5092 124.707 15.5979 124.673 15.7754C124.424 17.1047 123.533 18.0817 121.708 18.0817C119.696 18.0817 118.54 17.1516 118.54 14.3108C118.54 11.4953 119.747 10.54 121.758 10.54C123.514 10.54 124.378 11.4111 124.604 12.7628C124.634 12.944 124.649 13.0345 124.705 13.0819C124.761 13.1293 124.847 13.1293 125.018 13.1293H127.856C128.052 13.1293 128.151 13.1293 128.21 13.064C128.27 12.9986 128.261 12.9046 128.243 12.7165C127.972 9.82505 125.836 7.62381 121.682 7.62381Z" fill="#1F40BA"/>
<path fill-rule="evenodd" clip-rule="evenodd" d="M128.725 14.2857C128.725 17.8303 130.585 20.9979 135.487 20.9979C139.666 20.9979 141.358 19.133 141.869 17.2638C141.925 17.0593 141.953 16.957 141.893 16.8783C141.833 16.7996 141.721 16.7996 141.497 16.7996H138.68C138.551 16.7996 138.487 16.7996 138.438 16.8292C138.39 16.8588 138.358 16.9234 138.292 17.0524C137.886 17.8544 137.045 18.4337 135.563 18.4337C133.778 18.4337 132.596 17.6544 132.37 15.2661H141.614C141.775 15.2661 141.856 15.2661 141.914 15.2119C141.972 15.1576 141.976 15.0833 141.985 14.9346C141.998 14.7286 141.998 14.4996 141.998 14.2606C141.998 10.7159 140.239 7.62381 135.487 7.62381C130.836 7.62381 128.725 10.6405 128.725 14.2857ZM138.454 13.0036H132.395C132.697 10.8668 133.753 10.1377 135.538 10.1377C137.398 10.1377 138.328 11.093 138.454 13.0036Z" fill="#1F40BA"/>
<path d="M106.73 20.5953C106.541 20.5953 106.447 20.5953 106.389 20.5367C106.33 20.4782 106.33 20.3839 106.33 20.1953V8.4257C106.33 8.23714 106.33 8.14286 106.389 8.08428C106.447 8.0257 106.541 8.0257 106.73 8.0257H109.55C109.739 8.0257 109.833 8.0257 109.891 8.08428C109.95 8.14286 109.95 8.23714 109.95 8.4257V10.7659C110.528 8.95585 111.685 7.82458 113.821 7.82458H114.251C114.44 7.82458 114.534 7.82458 114.592 7.88316C114.651 7.94174 114.651 8.03602 114.651 8.22458V11.0446C114.651 11.2332 114.651 11.3275 114.592 11.3861C114.534 11.4446 114.44 11.4446 114.251 11.4446H113.419C110.905 11.4446 110.051 12.8022 110.051 15.6429V20.1953C110.051 20.3839 110.051 20.4782 109.992 20.5367C109.933 20.5953 109.839 20.5953 109.651 20.5953H106.73Z" fill="#1F40BA"/>
<path d="M46.9367 20.9978C43.6435 20.9978 42.1854 19.0118 42.1854 15.7186V8.426C42.1854 8.23744 42.1854 8.14316 42.244 8.08458C42.3025 8.026 42.3968 8.026 42.5854 8.026H45.506C45.6946 8.026 45.7888 8.026 45.8474 8.08458C45.906 8.14316 45.906 8.23744 45.906 8.426V15.1655C45.906 17.1515 46.7859 17.956 48.3696 17.956C50.2299 17.956 51.3863 16.5733 51.3863 13.7326V8.426C51.3863 8.23744 51.3863 8.14316 51.4449 8.08458C51.5035 8.026 51.5978 8.026 51.7863 8.026H54.707C54.8955 8.026 54.9898 8.026 55.0484 8.08458C55.107 8.14316 55.107 8.23744 55.107 8.426V20.1956C55.107 20.3842 55.107 20.4785 55.0484 20.537C54.9898 20.5956 54.8955 20.5956 54.707 20.5956H51.7863C51.5978 20.5956 51.5035 20.5956 51.4449 20.537C51.3863 20.4785 51.3863 20.3842 51.3863 20.1956V18.1823C50.607 19.8666 49.1992 20.9978 46.9367 20.9978Z" fill="#1F40BA"/>
<path fill-rule="evenodd" clip-rule="evenodd" d="M26.6286 20.5371C26.6872 20.5956 26.7814 20.5956 26.97 20.5956H35.7207C39.2905 20.5956 41.1256 18.861 41.1256 16.0454C41.1256 13.3807 39.5418 12.2997 37.4553 11.9729C39.3659 11.5707 40.8994 10.4645 40.8994 8.00089C40.8994 5.73835 39.4664 3.87805 35.8967 3.87805H26.97C26.7814 3.87805 26.6872 3.87805 26.6286 3.93663C26.57 3.99521 26.57 4.08949 26.57 4.27805V20.1956C26.57 20.3842 26.57 20.4785 26.6286 20.5371ZM34.8659 17.6795H30.3912V13.3304H34.6397C36.4749 13.3304 37.1536 14.1851 37.1536 15.5175C37.1536 16.7493 36.5754 17.6795 34.8659 17.6795ZM34.6397 10.7662H30.3912V6.76906H34.7654C36.3492 6.76906 36.9022 7.47296 36.9022 8.75506C36.9022 9.96175 36.2989 10.7662 34.6397 10.7662Z" fill="#1F40BA"/>
<path fill-rule="evenodd" clip-rule="evenodd" d="M0.984646 5.323L9.09699 0.455588C9.60537 0.150561 9.85956 -0.00195312 10.1404 -0.00195312C10.4213 -0.00195312 10.6755 0.150559 11.1839 0.455584L19.2962 5.323C19.7772 5.61156 20.0176 5.75584 20.1493 5.98831C20.2809 6.22078 20.2809 6.50121 20.2809 7.06207V16.934C20.2809 17.4949 20.2809 17.7753 20.1493 18.0078C20.0176 18.2403 19.7772 18.3845 19.2962 18.6731L11.1839 23.5405C10.6755 23.8455 10.4213 23.998 10.1404 23.998C9.85956 23.998 9.60537 23.8455 9.09699 23.5405L0.984646 18.6731C0.503713 18.3845 0.263245 18.2403 0.131622 18.0078C-6.55651e-07 17.7753 0 17.4949 0 16.934V7.06207C0 6.50121 -6.55651e-07 6.22078 0.131622 5.98831C0.263245 5.75584 0.503713 5.61156 0.984646 5.323ZM20.1399 5.99805L7.52746 8.90861C7.3006 8.96096 7.13989 9.16298 7.13989 9.3958V14.6683C7.13989 14.8684 7.0207 15.0491 6.83685 15.1279L0.139893 17.998L12.7523 15.0875C12.9792 15.0351 13.1399 14.8331 13.1399 14.6003V9.32775C13.1399 9.12773 13.2591 8.94696 13.4429 8.86817L20.1399 5.99805Z" fill="#1F40BA"/>
</svg>
